<svg width="500" height="373" viewBox="0 0 500 373" fill="none" xmlns="http://www.w3.org/2000/svg">
<g clip-path="url(#clip0_195_1189)">
<path d="M500 327.449H0V327.699H500V327.449Z" fill="white"/>
<path d="M449.901 343.539H416.781V343.789H449.901V343.539Z" fill="white"/>
<path d="M331.221 346.26H322.531V346.51H331.221V346.26Z" fill="white"/>
<path d="M415.78 334.26H396.59V334.51H415.78V334.26Z" fill="white"/>
<path d="M95.6509 335.939H52.4609V336.189H95.6509V335.939Z" fill="white"/>
<path d="M110.889 335.939H104.559V336.189H110.889V335.939Z" fill="white"/>
<path d="M225.149 340.16H131.469V340.41H225.149V340.16Z" fill="white"/>
<path d="M237.001 282.85H43.9109C42.3983 282.847 40.9485 282.245 39.8798 281.174C38.8112 280.103 38.2109 278.653 38.2109 277.14V5.71C38.2109 4.19734 38.8112 2.7465 39.8798 1.67595C40.9485 0.605406 42.3983 0.00264913 43.9109 0L237.001 0C238.515 0 239.968 0.601588 241.039 1.67242C242.109 2.74325 242.711 4.19561 242.711 5.71V277.14C242.711 277.89 242.563 278.632 242.276 279.325C241.989 280.018 241.569 280.647 241.039 281.178C240.508 281.708 239.879 282.128 239.186 282.415C238.493 282.702 237.751 282.85 237.001 282.85ZM43.9109 0.25C42.4646 0.252649 41.0784 0.829067 40.0566 1.85273C39.0348 2.87639 38.4609 4.26365 38.4609 5.71V277.14C38.4609 278.586 39.0348 279.974 40.0566 280.997C41.0784 282.021 42.4646 282.597 43.9109 282.6H237.001C238.448 282.597 239.835 282.021 240.859 280.998C241.882 279.975 242.458 278.587 242.461 277.14V5.71C242.458 4.26273 241.882 2.87549 240.859 1.85212C239.835 0.828741 238.448 0.252643 237.001 0.25H43.9109Z" fill="white"/>
<path d="M453.31 282.85H260.21C258.696 282.847 257.246 282.245 256.175 281.175C255.105 280.104 254.503 278.654 254.5 277.14V5.71C254.503 4.19643 255.105 2.7456 256.175 1.67534C257.246 0.60508 258.696 0.0026438 260.21 0L453.31 0C454.821 0.00529221 456.268 0.609215 457.335 1.67947C458.401 2.74973 459 4.19907 459 5.71V277.14C459 278.651 458.401 280.1 457.335 281.171C456.268 282.241 454.821 282.845 453.31 282.85ZM260.21 0.25C258.763 0.252643 257.375 0.828741 256.352 1.85212C255.329 2.87549 254.753 4.26273 254.75 5.71V277.14C254.753 278.587 255.329 279.975 256.352 280.998C257.375 282.021 258.763 282.597 260.21 282.6H453.31C454.757 282.597 456.145 282.021 457.168 280.998C458.191 279.975 458.767 278.587 458.77 277.14V5.71C458.767 4.26273 458.191 2.87549 457.168 1.85212C456.145 0.828741 454.757 0.252643 453.31 0.25H260.21Z" fill="white"/>
<path d="M386.819 71.5402L395.819 78.1402C341.309 152.78 272.819 197.39 192.159 210.75C135.159 220.19 91.3486 209.89 84.5586 208.13V228.71C104.026 232.831 123.88 234.842 143.779 234.71C160.754 234.707 177.702 233.339 194.459 230.62C233.142 224.35 270.284 210.801 303.919 190.69C344.389 166.57 380.699 132.69 411.919 89.9702L420.779 96.4902L420.929 60.7402L386.819 71.5402Z" fill="#1E5FA6"/>
<path d="M94.5013 236.74H85.5312V326.85H94.5013V236.74Z" fill="white"/>
<path d="M116.142 240.74H107.172V326.85H116.142V240.74Z" fill="white"/>
<path d="M137.79 242.74H128.82V326.85H137.79V242.74Z" fill="white"/>
<path d="M159.431 242.74H150.461V326.85H159.431V242.74Z" fill="white"/>
<path d="M181.079 241.74H172.109V326.85H181.079V241.74Z" fill="white"/>
<path d="M202.72 238.74H193.75V326.85H202.72V238.74Z" fill="white"/>
<path d="M224.361 233.74H215.391V326.85H224.361V233.74Z" fill="white"/>
<path d="M246.009 228.74H237.039V326.85H246.009V228.74Z" fill="white"/>
<path d="M267.65 224.74H258.68V326.85H267.65V224.74Z" fill="white"/>
<path d="M289.298 211.66H280.328V326.85H289.298V211.66Z" fill="white"/>
<path d="M310.939 200.67H301.969V326.85H310.939V200.67Z" fill="white"/>
<path d="M332.591 188.16H323.621V326.85H332.591V188.16Z" fill="white"/>
<path d="M354.232 171.48H345.262V326.85H354.232V171.48Z" fill="white"/>
<path d="M375.88 154.07H366.91V326.85H375.88V154.07Z" fill="white"/>
<path d="M397.521 130.859H388.551V326.849H397.521V130.859Z" fill="white"/>
<path d="M419.169 105.539H410.199V326.849H419.169V105.539Z" fill="white"/>
<path d="M249.999 372.611C357.082 372.611 443.889 367.543 443.889 361.291C443.889 355.039 357.082 349.971 249.999 349.971C142.917 349.971 56.1094 355.039 56.1094 361.291C56.1094 367.543 142.917 372.611 249.999 372.611Z" fill="#041C36"/>
<path d="M397.501 215.43C378.292 263.146 350.961 307.174 316.721 345.56L254.781 307.11C289.022 268.73 316.356 224.71 335.571 177L397.501 215.43Z" fill="#3CC4F2"/>
<path opacity="0.4" d="M397.511 215.43C378.293 263.143 350.956 307.167 316.711 345.55L289.941 328.94L254.781 307.1C289.024 268.725 316.358 224.708 335.571 177L397.511 215.43Z" fill="white"/>
<path opacity="0.2" d="M345.763 187.859C345.324 189.027 344.627 190.081 343.724 190.942C342.82 191.802 341.733 192.446 340.545 192.827C339.356 193.207 338.097 193.313 336.862 193.136C335.627 192.96 334.447 192.506 333.413 191.809C316.46 230.384 294.121 266.36 267.062 298.659C268.148 299.276 269.079 300.131 269.786 301.159C270.494 302.188 270.958 303.364 271.145 304.598C271.332 305.832 271.236 307.093 270.865 308.285C270.494 309.477 269.857 310.569 269.003 311.479L307.612 335.479C309.454 333.437 311.941 332.09 314.656 331.662C317.372 331.235 320.153 331.752 322.533 333.129C349.593 300.831 371.933 264.856 388.883 226.279C386.592 224.756 384.894 222.493 384.073 219.868C383.252 217.243 383.358 214.416 384.372 211.859V211.789L345.772 187.789L345.763 187.859ZM347.552 275.609C341.612 285.159 328.662 287.839 319.152 281.929C309.642 276.019 307.152 263.759 313.082 254.209C319.012 244.659 331.173 241.479 340.693 247.389C350.213 253.299 353.512 266.069 347.552 275.609Z" fill="black"/>
<g opacity="0.2">
<path d="M340.633 268.749L343.182 270.339C342.802 270.969 342.412 271.599 342.022 272.219L339.483 270.649C338.166 272.638 336.271 274.174 334.052 275.049L332.402 272.599C334.242 271.903 335.845 270.696 337.022 269.119L332.453 266.279C330.253 268.439 327.692 270.629 324.522 268.659C322.192 267.209 321.253 264.279 323.143 260.499L320.562 258.899L321.723 257.019L324.263 258.589C325.341 256.99 326.797 255.681 328.503 254.779L330.233 257.159C328.87 257.909 327.676 258.93 326.723 260.159L331.332 263.019C333.532 260.859 336.003 258.559 339.173 260.519C341.503 261.929 342.483 264.919 340.633 268.749ZM329.693 264.569L325.622 261.999C324.862 263.789 325.253 264.999 326.253 265.599C327.253 266.199 328.473 265.649 329.693 264.569ZM337.592 263.569C336.472 262.869 335.333 263.569 334.103 264.699L338.103 267.209C338.923 265.379 338.572 264.179 337.592 263.569Z" fill="black"/>
</g>
<path opacity="0.2" d="M397.511 215.43C378.293 263.143 350.956 307.167 316.711 345.55L289.941 328.94L268.691 293.06C268.691 293.06 353.441 257.92 397.511 215.43Z" fill="black"/>
<path d="M443.502 282.451C404.037 315.439 359.153 341.339 310.842 359.001L274.402 295.861C322.714 278.201 367.598 252.301 407.062 219.311L443.502 282.451Z" fill="#3CC4F2"/>
<path opacity="0.4" d="M443.502 282.451C404.037 315.439 359.153 341.339 310.842 359.001L274.402 295.861C322.714 278.201 367.598 252.301 407.062 219.311L443.502 282.451Z" fill="white"/>
<path opacity="0.2" d="M410.91 233.709C409.973 234.534 408.861 235.135 407.658 235.468C406.455 235.8 405.192 235.855 403.965 235.629C402.737 235.403 401.577 234.901 400.572 234.162C399.566 233.422 398.742 232.464 398.16 231.359C364.983 257.363 328.284 278.527 289.16 294.219C289.825 295.275 290.241 296.468 290.378 297.707C290.515 298.947 290.369 300.202 289.952 301.377C289.534 302.552 288.855 303.617 287.966 304.493C287.078 305.368 286.002 306.03 284.82 306.429L307.53 345.779C310.12 344.852 312.95 344.843 315.546 345.753C318.142 346.663 320.347 348.438 321.79 350.779C360.914 335.087 397.613 313.923 430.79 287.919C429.49 285.496 429.062 282.7 429.577 279.998C430.092 277.297 431.52 274.854 433.62 273.079L433.69 273.029L411 233.649L410.91 233.709ZM371.05 311.909C361.3 317.509 348.63 313.769 343.05 304.069C337.47 294.369 341.05 282.379 350.8 276.769C360.55 271.159 372.8 274.079 378.35 283.769C383.9 293.459 380.81 306.309 371.05 311.909Z" fill="black"/>
<g opacity="0.2">
<path d="M368.181 302.59C368.691 303.46 369.181 304.33 369.691 305.2L367.771 306.31C367.281 305.44 366.771 304.58 366.281 303.72C364.18 304.854 361.782 305.314 359.411 305.04C359.311 304.04 359.221 303.04 359.121 302.1C361.07 302.353 363.051 302.045 364.831 301.21C363.941 299.66 363.041 298.11 362.151 296.55C359.151 297.42 355.901 298.14 354.031 294.9C352.661 292.53 353.221 289.5 356.671 287.06L355.151 284.43L357.061 283.32C357.561 284.18 358.061 285.04 358.551 285.9C360.262 285.008 362.162 284.542 364.091 284.54C364.231 285.54 364.361 286.49 364.501 287.46C362.952 287.482 361.423 287.822 360.011 288.46L362.721 293.16C365.671 292.29 368.941 291.42 370.811 294.66C372.181 297 371.631 300.09 368.181 302.59ZM360.521 293.74L358.131 289.59C356.621 290.8 356.391 292.04 356.991 293.06C357.591 294.08 358.941 294.12 360.521 293.74ZM367.961 296.59C367.301 295.45 365.961 295.52 364.341 295.94C365.141 297.314 365.934 298.687 366.721 300.06C368.281 298.81 368.541 297.59 368.001 296.59H367.961Z" fill="black"/>
</g>
<path d="M382.029 359.01H421.059V351.35H382.029V359.01Z" fill="#3CC4F2"/>
<path opacity="0.2" d="M382.029 359H390.629V351.34H382.029V359Z" fill="black"/>
<path opacity="0.2" d="M394.759 351.34H391.629V359H394.759V351.34Z" fill="black"/>
<path opacity="0.2" d="M398.769 351.34H396.629V359H398.769V351.34Z" fill="black"/>
<path opacity="0.2" d="M402.699 351.34H401.629V359H402.699V351.34Z" fill="black"/>
<path opacity="0.2" d="M409.169 351.34H408.629V359H409.169V351.34Z" fill="black"/>
<path d="M383.868 351.391H422.898V343.731H383.868V351.391Z" fill="#3CC4F2"/>
<path opacity="0.2" d="M383.869 351.379H392.469V343.719H383.869V351.379Z" fill="black"/>
<path opacity="0.2" d="M396.599 343.721H393.469V351.381H396.599V343.721Z" fill="black"/>
<path opacity="0.2" d="M400.609 343.721H398.469V351.381H400.609V343.721Z" fill="black"/>
<path opacity="0.2" d="M404.539 343.721H403.469V351.381H404.539V343.721Z" fill="black"/>
<path opacity="0.2" d="M411.009 343.721H410.469V351.381H411.009V343.721Z" fill="black"/>
<path d="M380.388 343.76H419.418V336.1H380.388V343.76Z" fill="#3CC4F2"/>
<path opacity="0.2" d="M380.388 343.76H388.988V336.1H380.388V343.76Z" fill="black"/>
<path opacity="0.2" d="M393.11 336.1H389.98V343.76H393.11V336.1Z" fill="black"/>
<path opacity="0.2" d="M397.12 336.1H394.98V343.76H397.12V336.1Z" fill="black"/>
<path opacity="0.2" d="M401.05 336.1H399.98V343.76H401.05V336.1Z" fill="black"/>
<path opacity="0.2" d="M407.52 336.1H406.98V343.76H407.52V336.1Z" fill="black"/>
<path d="M382.029 336.15H421.059V328.49H382.029V336.15Z" fill="#3CC4F2"/>
<path opacity="0.2" d="M382.029 336.141H390.629V328.481H382.029V336.141Z" fill="black"/>
<path opacity="0.2" d="M394.759 328.48H391.629V336.14H394.759V328.48Z" fill="black"/>
<path opacity="0.2" d="M398.769 328.48H396.629V336.14H398.769V328.48Z" fill="black"/>
<path opacity="0.2" d="M402.699 328.48H401.629V336.14H402.699V328.48Z" fill="black"/>
<path opacity="0.2" d="M409.169 328.48H408.629V336.14H409.169V328.48Z" fill="black"/>
<path d="M383.021 328.529H422.051V320.869H383.021V328.529Z" fill="#3CC4F2"/>
<path opacity="0.2" d="M383.021 328.52H391.621V320.86H383.021V328.52Z" fill="black"/>
<path opacity="0.2" d="M395.759 320.859H392.629V328.519H395.759V320.859Z" fill="black"/>
<path opacity="0.2" d="M399.769 320.859H397.629V328.519H399.769V320.859Z" fill="black"/>
<path opacity="0.2" d="M403.699 320.859H402.629V328.519H403.699V320.859Z" fill="black"/>
<path opacity="0.2" d="M410.169 320.859H409.629V328.519H410.169V320.859Z" fill="black"/>
<path d="M382.021 320.91H421.051V313.25H382.021V320.91Z" fill="#3CC4F2"/>
<path opacity="0.2" d="M382.021 320.9H390.621V313.24H382.021V320.9Z" fill="black"/>
<path opacity="0.2" d="M394.759 313.24H391.629V320.9H394.759V313.24Z" fill="black"/>
<path opacity="0.2" d="M398.769 313.24H396.629V320.9H398.769V313.24Z" fill="black"/>
<path opacity="0.2" d="M402.699 313.24H401.629V320.9H402.699V313.24Z" fill="black"/>
<path opacity="0.2" d="M409.169 313.24H408.629V320.9H409.169V313.24Z" fill="black"/>
<path d="M382.021 313.289H421.051V305.629H382.021V313.289Z" fill="#3CC4F2"/>
<path opacity="0.2" d="M382.021 313.279H390.621V305.619H382.021V313.279Z" fill="black"/>
<path opacity="0.2" d="M394.759 305.619H391.629V313.279H394.759V305.619Z" fill="black"/>
<path opacity="0.2" d="M398.769 305.619H396.629V313.279H398.769V305.619Z" fill="black"/>
<path opacity="0.2" d="M402.699 305.619H401.629V313.279H402.699V305.619Z" fill="black"/>
<path opacity="0.2" d="M409.169 305.619H408.629V313.279H409.169V305.619Z" fill="black"/>
<path d="M384.021 305.67H423.051V298.01H384.021V305.67Z" fill="#3CC4F2"/>
<path opacity="0.2" d="M384.021 305.66H392.621V298H384.021V305.66Z" fill="black"/>
<path opacity="0.2" d="M396.759 298H393.629V305.66H396.759V298Z" fill="black"/>
<path opacity="0.2" d="M400.769 298H398.629V305.66H400.769V298Z" fill="black"/>
<path opacity="0.2" d="M404.699 298H403.629V305.66H404.699V298Z" fill="black"/>
<path opacity="0.2" d="M411.169 298H410.629V305.66H411.169V298Z" fill="black"/>
<path d="M382.021 298.049H421.051V290.389H382.021V298.049Z" fill="#3CC4F2"/>
<path opacity="0.2" d="M382.021 298.039H390.621V290.379H382.021V298.039Z" fill="black"/>
<path opacity="0.2" d="M394.759 290.379H391.629V298.039H394.759V290.379Z" fill="black"/>
<path opacity="0.2" d="M398.769 290.379H396.629V298.039H398.769V290.379Z" fill="black"/>
<path opacity="0.2" d="M402.699 290.379H401.629V298.039H402.699V290.379Z" fill="black"/>
<path opacity="0.2" d="M409.169 290.379H408.629V298.039H409.169V290.379Z" fill="black"/>
<path d="M380.021 290.42H419.051V282.76H380.021V290.42Z" fill="#3CC4F2"/>
<path opacity="0.2" d="M380.021 290.42H388.621V282.76H380.021V290.42Z" fill="black"/>
<path opacity="0.2" d="M392.759 282.76H389.629V290.42H392.759V282.76Z" fill="black"/>
<path opacity="0.2" d="M396.769 282.76H394.629V290.42H396.769V282.76Z" fill="black"/>
<path opacity="0.2" d="M400.699 282.76H399.629V290.42H400.699V282.76Z" fill="black"/>
<path opacity="0.2" d="M407.169 282.76H406.629V290.42H407.169V282.76Z" fill="black"/>
<path d="M347.611 359.01H386.641V351.35H347.611V359.01Z" fill="#3CC4F2"/>
<path opacity="0.2" d="M347.611 359H356.211V351.34H347.611V359Z" fill="black"/>
<path opacity="0.2" d="M360.329 351.34H357.199V359H360.329V351.34Z" fill="black"/>
<path opacity="0.2" d="M364.339 351.34H362.199V359H364.339V351.34Z" fill="black"/>
<path opacity="0.2" d="M368.269 351.34H367.199V359H368.269V351.34Z" fill="black"/>
<path opacity="0.2" d="M374.739 351.34H374.199V359H374.739V351.34Z" fill="black"/>
<path d="M349.611 351.391H388.641V343.731H349.611V351.391Z" fill="#3CC4F2"/>
<path opacity="0.2" d="M349.611 351.379H358.211V343.719H349.611V351.379Z" fill="black"/>
<path opacity="0.2" d="M362.329 343.721H359.199V351.381H362.329V343.721Z" fill="black"/>
<path opacity="0.2" d="M366.339 343.721H364.199V351.381H366.339V343.721Z" fill="black"/>
<path opacity="0.2" d="M370.269 343.721H369.199V351.381H370.269V343.721Z" fill="black"/>
<path opacity="0.2" d="M376.739 343.721H376.199V351.381H376.739V343.721Z" fill="black"/>
<path d="M347.611 343.77H386.641V336.11H347.611V343.77Z" fill="#3CC4F2"/>
<path opacity="0.2" d="M347.611 343.76H356.211V336.1H347.611V343.76Z" fill="black"/>
<path opacity="0.2" d="M360.329 336.1H357.199V343.76H360.329V336.1Z" fill="black"/>
<path opacity="0.2" d="M364.339 336.1H362.199V343.76H364.339V336.1Z" fill="black"/>
<path opacity="0.2" d="M368.269 336.1H367.199V343.76H368.269V336.1Z" fill="black"/>
<path opacity="0.2" d="M374.739 336.1H374.199V343.76H374.739V336.1Z" fill="black"/>
<path d="M348.611 336.15H387.641V328.49H348.611V336.15Z" fill="#3CC4F2"/>
<path opacity="0.2" d="M348.611 336.141H357.211V328.481H348.611V336.141Z" fill="black"/>
<path opacity="0.2" d="M361.329 328.48H358.199V336.14H361.329V328.48Z" fill="black"/>
<path opacity="0.2" d="M365.339 328.48H363.199V336.14H365.339V328.48Z" fill="black"/>
<path opacity="0.2" d="M369.269 328.48H368.199V336.14H369.269V328.48Z" fill="black"/>
<path opacity="0.2" d="M375.739 328.48H375.199V336.14H375.739V328.48Z" fill="black"/>
<path d="M347.611 328.529H386.641V320.869H347.611V328.529Z" fill="#3CC4F2"/>
<path opacity="0.2" d="M347.611 328.52H356.211V320.86H347.611V328.52Z" fill="black"/>
<path opacity="0.2" d="M360.341 320.859H357.211V328.519H360.341V320.859Z" fill="black"/>
<path opacity="0.2" d="M364.351 320.859H362.211V328.519H364.351V320.859Z" fill="black"/>
<path opacity="0.2" d="M368.281 320.859H367.211V328.519H368.281V320.859Z" fill="black"/>
<path opacity="0.2" d="M374.751 320.859H374.211V328.519H374.751V320.859Z" fill="black"/>
<path d="M350.611 320.91H389.641V313.25H350.611V320.91Z" fill="#3CC4F2"/>
<path opacity="0.2" d="M350.611 320.9H359.211V313.24H350.611V320.9Z" fill="black"/>
<path opacity="0.2" d="M363.341 313.24H360.211V320.9H363.341V313.24Z" fill="black"/>
<path opacity="0.2" d="M367.351 313.24H365.211V320.9H367.351V313.24Z" fill="black"/>
<path opacity="0.2" d="M371.281 313.24H370.211V320.9H371.281V313.24Z" fill="black"/>
<path opacity="0.2" d="M377.751 313.24H377.211V320.9H377.751V313.24Z" fill="black"/>
<path d="M321.809 42.5391H176.119C170.375 42.5391 165.719 47.1953 165.719 52.9391V348.599C165.719 354.343 170.375 358.999 176.119 358.999H321.809C327.553 358.999 332.209 354.343 332.209 348.599V52.9391C332.209 47.1953 327.553 42.5391 321.809 42.5391Z" fill="#263238"/>
<path d="M326.647 52.5784V348.438C326.647 348.979 326.54 349.514 326.331 350.012C326.122 350.511 325.816 350.962 325.43 351.341C325.045 351.72 324.588 352.019 324.086 352.219C323.584 352.419 323.048 352.518 322.507 352.508H175.087C174.596 352.515 174.109 352.423 173.655 352.237C173.201 352.051 172.789 351.775 172.445 351.425C172.1 351.076 171.83 350.66 171.65 350.204C171.469 349.747 171.384 349.259 171.397 348.768V52.2384C171.38 51.8062 171.448 51.3749 171.597 50.9691C171.747 50.5632 171.975 50.1908 172.268 49.8732C172.562 49.5555 172.915 49.2989 173.308 49.1179C173.7 48.9369 174.125 48.8351 174.557 48.8184H211.417C211.933 48.8278 212.433 48.9908 212.856 49.2865C213.278 49.5823 213.602 49.9972 213.787 50.4784L215.317 54.2284C215.505 54.7057 215.831 55.1165 216.253 55.4085C216.675 55.7004 217.174 55.8605 217.687 55.8684H280.437C280.948 55.8669 281.446 55.7129 281.869 55.426C282.291 55.1391 282.618 54.7325 282.807 54.2584L284.337 50.4784C284.523 49.998 284.848 49.5838 285.27 49.2882C285.692 48.9927 286.192 48.8291 286.707 48.8184H322.997C323.979 48.8342 324.915 49.2389 325.6 49.9437C326.284 50.6486 326.661 51.5961 326.647 52.5784Z" fill="#3CC4F2"/>
<path opacity="0.7" d="M326.651 61.1289H171.391V340.289H326.651V61.1289Z" fill="white"/>
<path opacity="0.6" d="M245.509 51.3088C246.685 51.3088 247.639 50.3552 247.639 49.1788C247.639 48.0025 246.685 47.0488 245.509 47.0488C244.333 47.0488 243.379 48.0025 243.379 49.1788C243.379 50.3552 244.333 51.3088 245.509 51.3088Z" fill="white"/>
<path opacity="0.6" d="M251.998 49.1784C252 49.4502 251.921 49.7164 251.771 49.9433C251.621 50.1701 251.407 50.3472 251.157 50.4522C250.906 50.5571 250.63 50.5851 250.363 50.5325C250.096 50.48 249.851 50.3493 249.659 50.1571C249.467 49.9649 249.336 49.7199 249.284 49.4532C249.231 49.1865 249.259 48.9102 249.364 48.6595C249.469 48.4087 249.646 48.1949 249.873 48.0451C250.1 47.8953 250.366 47.8164 250.638 47.8184C250.998 47.8184 251.344 47.9617 251.599 48.2167C251.854 48.4718 251.998 48.8177 251.998 49.1784Z" fill="white"/>
<path opacity="0.6" d="M188.9 57.0488H190.82V54.4888H188.9V57.0488Z" fill="white"/>
<path opacity="0.6" d="M185.779 57.0488H187.699V53.6388H185.779V57.0488Z" fill="white"/>
<path opacity="0.6" d="M182.65 57.0586H184.57V52.7986H182.65V57.0586Z" fill="white"/>
<path opacity="0.6" d="M179.529 57.0586H181.449V51.9386H179.529V57.0586Z" fill="white"/>
<path opacity="0.6" d="M309.488 53.5684H308.348V56.1284H309.488V53.5684Z" fill="white"/>
<path opacity="0.6" d="M310.26 57.0586H319.32V52.6386H310.26V57.0586Z" fill="white"/>
<path d="M326.729 61.1582H171.199V86.3582H326.729V61.1582Z" fill="#263238"/>
<g opacity="0.7">
<path d="M210.419 70.1184V72.6684H214.479V73.9984H210.419V77.2184H208.859V68.8184H214.999V70.1284L210.419 70.1184Z" fill="white"/>
<path d="M216 68.8483C216.001 68.7216 216.028 68.5966 216.08 68.4811C216.132 68.3655 216.207 68.2621 216.301 68.1774C216.395 68.0927 216.506 68.0286 216.626 67.9891C216.747 67.9497 216.874 67.9357 217 67.9483C217.123 67.9329 217.248 67.9435 217.367 67.9793C217.486 68.0152 217.596 68.0756 217.691 68.1566C217.785 68.2376 217.861 68.3375 217.914 68.4497C217.968 68.5619 217.997 68.6841 218 68.8083C217.939 69.016 217.813 69.1984 217.64 69.3283C217.467 69.4581 217.256 69.5283 217.04 69.5283C216.824 69.5283 216.613 69.4581 216.44 69.3283C216.267 69.1984 216.141 69.016 216.08 68.8083L216 68.8483ZM216.2 70.8483H217.7V77.2583H216.2V70.8483Z" fill="white"/>
<path d="M226.001 73.5383V77.2083H224.501V73.7283C224.501 72.5883 223.941 72.0383 222.981 72.0383C222.728 72.0249 222.476 72.068 222.242 72.1646C222.008 72.2612 221.798 72.4087 221.629 72.5965C221.459 72.7844 221.334 73.0077 221.261 73.2502C221.189 73.4927 221.172 73.7483 221.211 73.9983V77.2383H219.711V70.7983H221.141V71.6283C221.418 71.3244 221.759 71.086 222.139 70.9304C222.52 70.7747 222.93 70.7057 223.341 70.7283C223.71 70.7035 224.08 70.7604 224.424 70.895C224.768 71.0297 225.078 71.2387 225.332 71.5071C225.587 71.7756 225.778 72.0969 225.894 72.448C226.009 72.7991 226.046 73.1714 226.001 73.5383Z" fill="white"/>
<path d="M233.29 73.4476V77.2076H231.88V76.4276C231.645 76.7264 231.339 76.9616 230.989 77.1118C230.64 77.262 230.259 77.3224 229.88 77.2877C228.42 77.2877 227.5 76.4877 227.5 75.3677C227.5 74.2477 228.21 73.4576 230.16 73.4576H231.81V73.3677C231.81 72.4877 231.29 71.9777 230.22 71.9777C229.519 71.9704 228.834 72.1916 228.27 72.6076L227.69 71.5176C228.485 70.9692 229.435 70.6921 230.4 70.7277C232.22 70.7277 233.29 71.6076 233.29 73.4476ZM231.79 75.1976V74.4576H230.25C229.25 74.4576 228.95 74.8376 228.95 75.3076C228.95 75.7776 229.41 76.1976 230.17 76.1976C230.511 76.2217 230.85 76.1382 231.141 75.9587C231.432 75.7793 231.659 75.5131 231.79 75.1976Z" fill="white"/>
<path d="M241.521 73.539V77.209H240.001V73.729C240.001 72.589 239.441 72.039 238.481 72.039C238.228 72.0256 237.976 72.0687 237.742 72.1653C237.508 72.2619 237.298 72.4094 237.129 72.5972C236.959 72.7851 236.834 73.0084 236.761 73.2509C236.689 73.4934 236.672 73.749 236.711 73.999V77.239H235.211V70.799H236.641V71.629C236.919 71.3244 237.262 71.0855 237.644 70.9299C238.027 70.7742 238.439 70.7056 238.851 70.729C239.221 70.7026 239.591 70.7584 239.937 70.8924C240.282 71.0263 240.594 71.2351 240.849 71.5037C241.105 71.7724 241.297 72.0942 241.413 72.4461C241.529 72.798 241.566 73.1712 241.521 73.539Z" fill="white"/>
<path d="M243 73.9982C242.995 73.551 243.082 73.1076 243.257 72.6959C243.432 72.2842 243.69 71.9131 244.015 71.6059C244.34 71.2988 244.725 71.0622 245.146 70.9111C245.566 70.7601 246.014 70.6978 246.46 70.7282C247.012 70.6885 247.563 70.8077 248.048 71.0718C248.534 71.3359 248.934 71.7338 249.2 72.2182L248.05 72.8882C247.885 72.6124 247.65 72.385 247.37 72.2287C247.089 72.0725 246.772 71.993 246.45 71.9982C245.92 71.9982 245.411 72.2089 245.036 72.584C244.661 72.9591 244.45 73.4678 244.45 73.9982C244.45 74.5286 244.661 75.0373 245.036 75.4124C245.411 75.7875 245.92 75.9982 246.45 75.9982C246.772 76.0034 247.089 75.9239 247.37 75.7677C247.65 75.6114 247.885 75.384 248.05 75.1082L249.2 75.7782C248.932 76.262 248.533 76.6598 248.048 76.9254C247.563 77.1909 247.012 77.3133 246.46 77.2782C246.014 77.3071 245.566 77.2435 245.145 77.0913C244.724 76.9391 244.339 76.7016 244.014 76.3936C243.689 76.0857 243.432 75.714 243.257 75.3018C243.083 74.8896 242.995 74.4458 243 73.9982Z" fill="white"/>
<path d="M256.371 74.4789H251.371C251.471 74.9373 251.734 75.3439 252.111 75.6234C252.488 75.9029 252.953 76.0363 253.421 75.9989C253.744 76.011 254.066 75.9549 254.366 75.8343C254.665 75.7137 254.936 75.5312 255.161 75.2989L255.961 76.2289C255.476 76.7097 254.864 77.0427 254.197 77.189C253.53 77.3353 252.835 77.2888 252.194 77.055C251.552 76.8212 250.99 76.4097 250.573 75.8686C250.157 75.3274 249.903 74.679 249.841 73.9989C249.83 73.563 249.908 73.1294 250.071 72.7249C250.234 72.3205 250.478 71.9537 250.788 71.6472C251.098 71.3408 251.468 71.1012 251.874 70.9432C252.281 70.7853 252.715 70.7123 253.151 70.7289C253.583 70.7132 254.014 70.7873 254.416 70.9465C254.818 71.1057 255.183 71.3465 255.488 71.6538C255.792 71.961 256.029 72.3281 256.185 72.7317C256.34 73.1353 256.411 73.5668 256.391 73.9989C256.391 74.1589 256.381 74.3389 256.371 74.4789ZM251.371 73.4789H255.001C254.955 73.0369 254.743 72.6291 254.406 72.339C254.069 72.049 253.635 71.8986 253.191 71.9189C252.738 71.8905 252.292 72.038 251.946 72.3305C251.599 72.623 251.379 73.0379 251.331 73.4889L251.371 73.4789Z" fill="white"/>
<path d="M266.728 75.2586H262.538L261.708 77.2086H260.098L263.878 68.8086H265.418L269.208 77.2086H267.568L266.728 75.2586ZM266.218 73.9986L264.638 70.3286L263.058 73.9986H266.218Z" fill="white"/>
<path d="M276.929 73.9975C276.953 74.4325 276.886 74.8677 276.732 75.2751C276.577 75.6825 276.339 76.0531 276.033 76.363C275.727 76.673 275.359 76.9153 274.954 77.0746C274.548 77.2338 274.114 77.3063 273.679 77.2875C273.295 77.2998 272.914 77.2294 272.56 77.081C272.206 76.9326 271.889 76.7097 271.629 76.4275V79.5275H270.129V70.7975H271.559V71.6375C271.82 71.3352 272.147 71.0963 272.514 70.9387C272.881 70.781 273.28 70.7088 273.679 70.7275C274.112 70.7089 274.545 70.7809 274.949 70.9389C275.353 71.0969 275.72 71.3375 276.026 71.6452C276.331 71.953 276.57 72.3211 276.725 72.7261C276.881 73.1311 276.95 73.5641 276.929 73.9975ZM275.409 73.9975C275.389 73.6262 275.261 73.2687 275.04 72.9695C274.82 72.6703 274.516 72.4424 274.167 72.3142C273.818 72.1859 273.439 72.1628 273.077 72.2478C272.715 72.3329 272.386 72.5223 272.131 72.7925C271.875 73.0628 271.705 73.402 271.64 73.7682C271.576 74.1344 271.62 74.5115 271.768 74.8527C271.916 75.1939 272.161 75.4843 272.472 75.6877C272.783 75.8912 273.147 75.9989 273.519 75.9975C273.778 76.0024 274.035 75.9532 274.274 75.8529C274.513 75.7527 274.728 75.6036 274.906 75.4153C275.084 75.2271 275.221 75.0037 275.307 74.7595C275.394 74.5154 275.428 74.2558 275.409 73.9975Z" fill="white"/>
<path d="M285.171 73.9975C285.195 74.4325 285.128 74.8677 284.974 75.2751C284.82 75.6825 284.582 76.0531 284.276 76.3631C283.969 76.673 283.602 76.9154 283.196 77.0746C282.791 77.2338 282.356 77.3063 281.921 77.2875C281.536 77.3013 281.152 77.2316 280.797 77.0831C280.441 76.9347 280.122 76.711 279.861 76.4275V79.5275H278.371V70.7975H279.791V71.6375C280.055 71.335 280.383 71.0961 280.752 70.9385C281.121 70.7809 281.52 70.7088 281.921 70.7275C282.355 70.7089 282.787 70.7809 283.191 70.9389C283.595 71.097 283.962 71.3375 284.268 71.6452C284.574 71.953 284.812 72.3211 284.967 72.7261C285.123 73.1312 285.192 73.5642 285.171 73.9975ZM283.641 73.9975C283.622 73.6262 283.493 73.2688 283.273 72.9695C283.052 72.6703 282.748 72.4425 282.399 72.3142C282.05 72.1859 281.671 72.1628 281.309 72.2479C280.947 72.3329 280.618 72.5223 280.363 72.7925C280.107 73.0628 279.937 73.402 279.872 73.7683C279.808 74.1345 279.852 74.5115 280 74.8527C280.148 75.1939 280.393 75.4843 280.704 75.6878C281.015 75.8912 281.379 75.9989 281.751 75.9975C282.01 76.0024 282.267 75.9532 282.506 75.8529C282.745 75.7527 282.96 75.6036 283.138 75.4154C283.316 75.2271 283.453 75.0037 283.539 74.7595C283.626 74.5154 283.661 74.2558 283.641 73.9975Z" fill="white"/>
</g>
<g opacity="0.7">
<path d="M181.747 78.4485C181.485 78.4474 181.233 78.3433 181.047 78.1585L177.287 74.3985C177.101 74.2111 176.996 73.9577 176.996 73.6935C176.996 73.4293 177.101 73.1759 177.287 72.9885L181.047 69.2385C181.238 69.0747 181.484 68.9891 181.736 68.9988C181.988 69.0085 182.226 69.1128 182.404 69.2909C182.583 69.469 182.687 69.7078 182.697 69.9594C182.706 70.2111 182.621 70.4572 182.457 70.6485L179.407 73.6485L182.457 76.6485C182.598 76.7884 182.694 76.9671 182.733 77.1618C182.772 77.3566 182.752 77.5585 182.676 77.742C182.6 77.9254 182.471 78.082 182.305 78.1918C182.14 78.3016 181.946 78.3597 181.747 78.3585V78.4485Z" fill="white"/>
</g>
<g opacity="0.7">
<path d="M320.94 69.9994C320.94 70.2248 320.873 70.4452 320.748 70.6327C320.623 70.8202 320.445 70.9663 320.236 71.0526C320.028 71.1389 319.799 71.1615 319.578 71.1175C319.357 71.0735 319.153 70.9649 318.994 70.8055C318.835 70.646 318.726 70.4429 318.682 70.2218C318.638 70.0006 318.661 69.7714 318.747 69.5631C318.833 69.3548 318.979 69.1768 319.167 69.0515C319.354 68.9262 319.575 68.8594 319.8 68.8594C320.102 68.8594 320.392 68.9795 320.606 69.1933C320.82 69.4071 320.94 69.697 320.94 69.9994Z" fill="white"/>
<path d="M320.94 73.6986C320.94 73.9241 320.873 74.1445 320.748 74.332C320.623 74.5195 320.445 74.6656 320.236 74.7519C320.028 74.8381 319.799 74.8607 319.578 74.8167C319.357 74.7727 319.153 74.6642 318.994 74.5047C318.835 74.3453 318.726 74.1422 318.682 73.921C318.638 73.6999 318.661 73.4707 318.747 73.2624C318.833 73.0541 318.979 72.876 319.167 72.7508C319.354 72.6255 319.575 72.5586 319.8 72.5586C319.95 72.5573 320.099 72.5859 320.238 72.6427C320.377 72.6995 320.503 72.7834 320.609 72.8896C320.715 72.9957 320.799 73.1219 320.856 73.2608C320.913 73.3997 320.941 73.5486 320.94 73.6986Z" fill="white"/>
<path d="M320.94 77.3588C320.94 77.5843 320.873 77.8047 320.748 77.9921C320.623 78.1796 320.445 78.3257 320.236 78.412C320.028 78.4983 319.799 78.5209 319.578 78.4769C319.357 78.4329 319.153 78.3243 318.994 78.1649C318.835 78.0055 318.726 77.8023 318.682 77.5812C318.638 77.3601 318.661 77.1308 318.747 76.9225C318.833 76.7142 318.979 76.5362 319.167 76.4109C319.354 76.2857 319.575 76.2188 319.8 76.2188C319.95 76.2175 320.099 76.246 320.238 76.3029C320.377 76.3597 320.503 76.4436 320.609 76.5497C320.715 76.6558 320.799 76.782 320.856 76.921C320.913 77.0599 320.941 77.2087 320.94 77.3588Z" fill="white"/>
</g>
<path d="M230.557 108.9V110.24H229.557V108.91C228.498 108.883 227.473 108.534 226.617 107.91L227.157 106.7C227.856 107.222 228.688 107.537 229.557 107.61V105.21C228.227 104.89 226.797 104.45 226.797 102.79C226.797 101.56 227.687 100.5 229.557 100.32V99H230.557V100.33C231.413 100.348 232.252 100.578 232.997 101L232.497 102.22C231.905 101.865 231.243 101.643 230.557 101.57V104C231.887 104.32 233.337 104.74 233.337 106.41C233.337 107.65 232.437 108.71 230.557 108.9ZM229.557 103.77V101.63C228.707 101.77 228.347 102.2 228.347 102.73C228.347 103.26 228.877 103.56 229.577 103.77H229.557ZM231.787 106.54C231.787 105.95 231.257 105.68 230.537 105.47V107.59C231.437 107.46 231.807 107.05 231.807 106.54H231.787Z" fill="#3CC4F2"/>
<path d="M240.509 100.408V108.808H238.999V101.718H237.219V100.408H240.509Z" fill="#3CC4F2"/>
<path d="M248.997 106.399C248.997 107.949 247.647 108.929 245.557 108.929C243.467 108.929 242.137 107.929 242.137 106.399C242.131 105.969 242.256 105.547 242.495 105.19C242.735 104.833 243.077 104.557 243.477 104.399C243.162 104.229 242.901 103.973 242.725 103.662C242.548 103.351 242.462 102.996 242.477 102.639C242.477 101.199 243.737 100.299 245.597 100.299C247.457 100.299 248.737 101.199 248.737 102.639C248.747 103.004 248.651 103.364 248.461 103.676C248.271 103.989 247.996 104.239 247.667 104.399C248.066 104.557 248.407 104.834 248.644 105.191C248.882 105.548 249.005 105.97 248.997 106.399ZM247.427 106.349C247.427 105.519 246.707 104.999 245.557 104.999C244.407 104.999 243.707 105.519 243.707 106.349C243.707 107.179 244.407 107.699 245.557 107.699C246.707 107.699 247.417 107.199 247.417 106.349H247.427ZM243.997 102.699C243.997 103.419 244.587 103.879 245.577 103.879C246.567 103.879 247.187 103.419 247.187 102.699C247.187 101.979 246.537 101.509 245.577 101.509C244.617 101.509 243.997 101.999 243.997 102.699Z" fill="#3CC4F2"/>
<path d="M250.07 107.889C250.07 107.623 250.176 107.369 250.363 107.182C250.551 106.994 250.805 106.889 251.07 106.889C251.336 106.889 251.59 106.994 251.777 107.182C251.965 107.369 252.07 107.623 252.07 107.889C252.07 108.154 251.965 108.408 251.777 108.596C251.59 108.783 251.336 108.889 251.07 108.889C250.805 108.889 250.551 108.783 250.363 108.596C250.176 108.408 250.07 108.154 250.07 107.889Z" fill="#3CC4F2"/>
<path d="M255.768 100.408V108.808H254.208V101.718H252.438V100.408H255.768Z" fill="#3CC4F2"/>
<path d="M263.52 107.489V108.809H257.33V107.809L260.67 104.649C261.48 103.869 261.67 103.369 261.67 102.909C261.67 102.139 261.14 101.699 260.11 101.699C259.731 101.674 259.352 101.739 259.004 101.891C258.655 102.042 258.349 102.275 258.11 102.569L257.02 101.729C257.407 101.266 257.897 100.899 258.45 100.658C259.004 100.417 259.606 100.308 260.21 100.339C262.03 100.339 263.21 101.259 263.21 102.749C263.198 103.268 263.066 103.777 262.825 104.237C262.584 104.697 262.24 105.095 261.82 105.399L259.57 107.539L263.52 107.489Z" fill="#3CC4F2"/>
<path d="M271.239 106.399C271.239 107.949 269.879 108.929 267.799 108.929C265.719 108.929 264.379 107.929 264.379 106.399C264.373 105.969 264.498 105.547 264.738 105.19C264.977 104.833 265.319 104.557 265.719 104.399C265.404 104.229 265.144 103.973 264.967 103.662C264.79 103.351 264.704 102.996 264.719 102.639C264.719 101.199 265.979 100.299 267.839 100.299C269.699 100.299 270.979 101.199 270.979 102.639C270.986 103.004 270.89 103.363 270.7 103.674C270.511 103.986 270.236 104.237 269.909 104.399C270.308 104.557 270.649 104.834 270.886 105.191C271.124 105.548 271.247 105.97 271.239 106.399ZM269.669 106.349C269.669 105.519 268.949 104.999 267.799 104.999C266.649 104.999 265.949 105.519 265.949 106.349C265.949 107.179 266.639 107.699 267.799 107.699C268.959 107.699 269.669 107.199 269.669 106.349ZM266.209 102.699C266.209 103.419 266.809 103.879 267.799 103.879C268.789 103.879 269.399 103.419 269.399 102.699C269.399 101.979 268.759 101.509 267.799 101.509C266.839 101.509 266.209 101.999 266.209 102.699Z" fill="#3CC4F2"/>
<path d="M238.887 158.658V159.408H238.337V158.668C237.751 158.652 237.183 158.461 236.707 158.118L237.007 157.448C237.395 157.736 237.856 157.91 238.337 157.948V156.618C237.597 156.438 236.807 156.198 236.807 155.278C236.807 154.598 237.297 154.008 238.337 153.908V153.148H238.887V153.888C239.364 153.914 239.827 154.054 240.237 154.298L239.997 154.998C239.664 154.809 239.297 154.687 238.917 154.638V155.998C239.657 156.178 240.457 156.408 240.457 157.328C240.427 157.998 239.927 158.558 238.887 158.658ZM238.337 155.818V154.628C237.867 154.708 237.667 154.938 237.667 155.238C237.667 155.538 237.997 155.698 238.337 155.818ZM239.577 157.348C239.577 157.028 239.287 156.868 238.887 156.758V157.938C239.367 157.868 239.577 157.638 239.577 157.348Z" fill="black"/>
<path d="M244.399 154V158.66H243.539V154.73H242.539V154H244.399Z" fill="black"/>
<path d="M246.93 154V158.66H246.07V154.73H245.07V154H246.93Z" fill="black"/>
<path d="M251.238 157.179C251.238 157.999 250.648 158.679 249.398 158.679C248.772 158.692 248.158 158.503 247.648 158.139L248.018 157.469C248.41 157.773 248.893 157.935 249.388 157.929C250.008 157.929 250.388 157.649 250.388 157.209C250.388 156.769 250.108 156.489 249.138 156.489H247.998L248.238 153.949H250.998V154.679H248.998L248.898 155.759H249.338C250.688 155.759 251.238 156.359 251.238 157.179Z" fill="black"/>
<path d="M252.798 158.109C252.786 158.307 252.735 158.501 252.648 158.679L252.308 159.609H251.768L252.038 158.609C251.942 158.569 251.862 158.5 251.806 158.413C251.751 158.325 251.723 158.223 251.728 158.119C251.717 158.043 251.723 157.965 251.745 157.891C251.767 157.817 251.805 157.749 251.856 157.691C251.906 157.633 251.969 157.586 252.039 157.554C252.109 157.522 252.186 157.506 252.263 157.506C252.34 157.506 252.416 157.522 252.486 157.554C252.556 157.586 252.619 157.633 252.67 157.691C252.72 157.749 252.758 157.817 252.78 157.891C252.802 157.965 252.808 158.043 252.798 158.119V158.109Z" fill="black"/>
<path d="M256.797 157.88V158.61H253.367V158L255.217 156.25C255.667 155.81 255.747 155.54 255.747 155.25C255.747 154.82 255.457 154.58 254.887 154.58C254.679 154.568 254.471 154.605 254.28 154.689C254.089 154.772 253.92 154.899 253.787 155.06L253.188 154.6C253.401 154.341 253.673 154.137 253.98 154.003C254.288 153.869 254.623 153.81 254.958 153.83C255.958 153.83 256.617 154.34 256.617 155.16C256.614 155.448 256.543 155.732 256.409 155.987C256.275 156.243 256.083 156.463 255.848 156.63L254.607 157.82L256.797 157.88Z" fill="black"/>
<path d="M257.277 156.279C257.277 154.749 258.117 153.889 259.217 153.889C260.317 153.889 261.167 154.749 261.167 156.279C261.167 157.809 260.327 158.679 259.217 158.679C258.107 158.679 257.277 157.809 257.277 156.279ZM260.277 156.279C260.277 155.159 259.837 154.639 259.197 154.639C258.557 154.639 258.127 155.159 258.127 156.279C258.127 157.399 258.567 157.929 259.197 157.929C259.827 157.929 260.297 157.409 260.297 156.279H260.277Z" fill="black"/>
<path d="M212.75 147.768C210.989 154.932 211.392 162.458 213.908 169.393C216.425 176.328 220.941 182.361 226.886 186.73C232.831 191.098 239.938 193.605 247.308 193.934C254.678 194.263 261.981 192.399 268.291 188.578C274.602 184.757 279.638 179.15 282.762 172.467C285.886 165.784 286.959 158.324 285.843 151.031C284.728 143.739 281.474 136.941 276.495 131.497C271.516 126.053 265.034 122.208 257.87 120.448C253.113 119.278 248.173 119.057 243.331 119.797C238.489 120.537 233.84 122.224 229.65 124.761C225.46 127.298 221.811 130.636 218.911 134.583C216.012 138.531 213.918 143.011 212.75 147.768ZM228.16 151.548C229.17 147.432 231.379 143.707 234.506 140.846C237.633 137.985 241.539 136.115 245.728 135.474C249.918 134.832 254.204 135.447 258.044 137.242C261.884 139.036 265.106 141.929 267.302 145.554C269.498 149.18 270.569 153.375 270.381 157.609C270.193 161.844 268.753 165.927 266.243 169.343C263.734 172.759 260.268 175.355 256.284 176.801C252.3 178.247 247.976 178.479 243.86 177.468C238.341 176.112 233.587 172.62 230.642 167.759C227.698 162.899 226.805 157.067 228.16 151.548Z" fill="#263238"/>
<path d="M217.169 176.179C220.589 181.748 225.412 186.322 231.156 189.441C236.9 192.559 243.362 194.114 249.896 193.949C256.43 193.785 262.806 191.906 268.385 188.501C273.964 185.096 278.551 180.286 281.685 174.55C284.82 168.815 286.392 162.357 286.246 155.823C286.099 149.288 284.237 142.907 280.848 137.319C277.459 131.73 272.66 127.131 266.934 123.98C261.207 120.83 254.753 119.24 248.219 119.369C249.439 119.35 250.647 119.613 251.749 120.138C252.851 120.662 253.817 121.434 254.571 122.393C255.326 123.352 255.85 124.472 256.101 125.667C256.352 126.861 256.324 128.097 256.019 129.279C255.589 130.969 254.603 132.466 253.219 133.529C251.843 134.598 250.16 135.197 248.419 135.239H247.969C251.736 135.069 255.482 135.896 258.827 137.636C262.173 139.377 264.999 141.97 267.022 145.153C269.045 148.336 270.192 151.996 270.347 155.764C270.502 159.532 269.66 163.275 267.907 166.613C266.153 169.952 263.549 172.768 260.358 174.779C257.167 176.789 253.502 177.921 249.734 178.062C245.965 178.202 242.226 177.346 238.894 175.579C235.563 173.812 232.756 171.197 230.759 167.999C229.651 166.188 227.877 164.885 225.819 164.369C224.501 164.046 223.122 164.073 221.819 164.449C220.644 164.78 219.561 165.378 218.655 166.196C217.749 167.014 217.044 168.029 216.594 169.164C216.144 170.299 215.962 171.522 216.062 172.738C216.161 173.955 216.54 175.132 217.169 176.179Z" fill="#3CC4F2"/>
<path d="M188.201 220.049H184.641V231.679H188.201V220.049Z" fill="#3CC4F2"/>
<path d="M197.138 223.049H193.578V231.679H197.138V223.049Z" fill="#3CC4F2"/>
<path d="M206.068 210.049H202.508V231.679H206.068V210.049Z" fill="#3CC4F2"/>
<path d="M215.009 205.049H211.449V231.679H215.009V205.049Z" fill="#3CC4F2"/>
<path d="M223.951 210.049H220.391V231.679H223.951V210.049Z" fill="#3CC4F2"/>
<path d="M232.88 220.049H229.32V231.679H232.88V220.049Z" fill="#3CC4F2"/>
<path d="M241.81 222.049H238.25V231.679H241.81V222.049Z" fill="#3CC4F2"/>
<path d="M250.747 223.049H247.188V231.679H250.747V223.049Z" fill="#3CC4F2"/>
<path d="M259.689 220.049H256.129V231.679H259.689V220.049Z" fill="#3CC4F2"/>
<path d="M268.619 215.049H265.059V231.679H268.619V215.049Z" fill="#3CC4F2"/>
<path d="M277.56 211.049H274V231.679H277.56V211.049Z" fill="#3CC4F2"/>
<path d="M286.49 207.049H282.93V231.679H286.49V207.049Z" fill="#3CC4F2"/>
<path d="M295.427 202.049H291.867V231.679H295.427V202.049Z" fill="#3CC4F2"/>
<path d="M304.369 209.049H300.809V231.679H304.369V209.049Z" fill="#3CC4F2"/>
<path d="M313.298 220.049H309.738V231.679H313.298V220.049Z" fill="#3CC4F2"/>
<path d="M206.068 210.049H202.508V215.049H206.068V210.049Z" fill="#263238"/>
<path d="M215.009 205.049H211.449V215.049H215.009V205.049Z" fill="#263238"/>
<path d="M223.951 210.049H220.391V215.049H223.951V210.049Z" fill="#263238"/>
<path d="M277.56 211.049H274V215.049H277.56V211.049Z" fill="#263238"/>
<path d="M286.49 207.049H282.93V215.049H286.49V207.049Z" fill="#263238"/>
<path d="M295.427 202.049H291.867V215.049H295.427V202.049Z" fill="#263238"/>
<path d="M304.369 209.049H300.809V215.049H304.369V209.049Z" fill="#263238"/>
<path d="M313.249 246.049H184.699C183.053 246.049 181.719 247.383 181.719 249.029V264.359C181.719 266.005 183.053 267.339 184.699 267.339H313.249C314.895 267.339 316.229 266.005 316.229 264.359V249.029C316.229 247.383 314.895 246.049 313.249 246.049Z" fill="#3CC4F2"/>
<g opacity="0.7">
<path d="M282.728 256.64H281.558V257.81H280.838V256.64H279.668V256H280.838V254.83H281.558V256H282.728V256.64Z" fill="white"/>
<path d="M287.397 258.69V259.44H286.857V258.7C286.271 258.679 285.705 258.488 285.227 258.15L285.527 257.47C285.912 257.764 286.373 257.941 286.857 257.98V256.65C286.117 256.47 285.327 256.23 285.327 255.3C285.327 254.63 285.817 254.03 286.857 253.93V253.18H287.397V253.92C287.874 253.94 288.339 254.081 288.747 254.33L288.477 255C288.146 254.805 287.778 254.682 287.397 254.64V256C288.137 256.18 288.937 256.42 288.937 257.34C288.937 258 288.447 258.58 287.397 258.69ZM286.857 255.84V254.66C286.377 254.73 286.177 254.97 286.177 255.26C286.177 255.55 286.467 255.73 286.857 255.84ZM288.087 257.38C288.087 257.05 287.797 256.9 287.397 256.79V258C287.887 257.89 288.087 257.67 288.087 257.38Z" fill="white"/>
<path d="M294.819 254V254.58L292.999 258.64H292.069L293.819 254.71H291.999V255.5H291.199V254H294.819Z" fill="white"/>
<path d="M298.61 257.21C298.61 258.02 298.02 258.7 296.77 258.7C296.143 258.714 295.53 258.524 295.02 258.16L295.39 257.49C295.781 257.794 296.264 257.957 296.76 257.95C297.38 257.95 297.76 257.68 297.76 257.24C297.76 256.8 297.48 256.52 296.51 256.52H295.39L295.63 253.98H298.36V254.71H296.36L296.26 255.78H296.7C298.06 255.78 298.61 256.38 298.61 257.21Z" fill="white"/>
<path d="M300.169 258.13C300.159 258.329 300.108 258.523 300.019 258.7L299.679 259.64H299.139L299.409 258.64C299.313 258.601 299.231 258.533 299.175 258.445C299.12 258.357 299.093 258.254 299.099 258.15C299.088 258.074 299.094 257.996 299.116 257.922C299.138 257.849 299.176 257.78 299.227 257.722C299.277 257.664 299.34 257.617 299.41 257.586C299.48 257.554 299.557 257.537 299.634 257.537C299.711 257.537 299.787 257.554 299.857 257.586C299.927 257.617 299.99 257.664 300.041 257.722C300.091 257.78 300.129 257.849 300.151 257.922C300.173 257.996 300.179 258.074 300.169 258.15V258.13Z" fill="white"/>
<path d="M300.648 256.31C300.648 254.78 301.488 253.91 302.588 253.91C303.688 253.91 304.588 254.78 304.588 256.31C304.588 257.84 303.758 258.7 302.588 258.7C301.418 258.7 300.648 257.84 300.648 256.31ZM303.648 256.31C303.648 255.18 303.208 254.67 302.568 254.67C301.928 254.67 301.498 255.18 301.498 256.31C301.498 257.44 301.998 258 302.588 258C303.178 258 303.668 257.43 303.668 256.31H303.648Z" fill="white"/>
<path d="M308.508 257.21C308.508 258.02 307.918 258.7 306.668 258.7C306.042 258.714 305.428 258.524 304.918 258.16L305.288 257.49C305.679 257.794 306.162 257.957 306.658 257.95C307.278 257.95 307.658 257.68 307.658 257.24C307.658 256.8 307.378 256.52 306.408 256.52H305.288L305.528 253.98H308.258V254.71H306.258L306.158 255.78H306.598C307.998 255.78 308.508 256.38 308.508 257.21Z" fill="white"/>
</g>
<path opacity="0.7" d="M222.76 255.069H191.44C191.124 255.069 190.822 254.944 190.599 254.721C190.375 254.498 190.25 254.195 190.25 253.879C190.25 253.564 190.375 253.261 190.599 253.038C190.822 252.815 191.124 252.689 191.44 252.689H222.76C223.076 252.689 223.378 252.815 223.601 253.038C223.825 253.261 223.95 253.564 223.95 253.879C223.95 254.195 223.825 254.498 223.601 254.721C223.378 254.944 223.076 255.069 222.76 255.069Z" fill="white"/>
<path opacity="0.7" d="M208.76 260.69H191.44C191.124 260.69 190.822 260.564 190.599 260.341C190.375 260.118 190.25 259.815 190.25 259.5C190.25 259.184 190.375 258.881 190.599 258.658C190.822 258.435 191.124 258.31 191.44 258.31H208.76C208.92 258.303 209.081 258.329 209.231 258.385C209.381 258.442 209.518 258.529 209.634 258.64C209.75 258.751 209.842 258.885 209.905 259.032C209.968 259.18 210 259.339 210 259.5C210 259.66 209.968 259.819 209.905 259.967C209.842 260.115 209.75 260.248 209.634 260.359C209.518 260.47 209.381 260.557 209.231 260.614C209.081 260.671 208.92 260.696 208.76 260.69Z" fill="white"/>
<path d="M313.249 275.049H184.699C183.053 275.049 181.719 276.383 181.719 278.029V293.359C181.719 295.005 183.053 296.339 184.699 296.339H313.249C314.895 296.339 316.229 295.005 316.229 293.359V278.029C316.229 276.383 314.895 275.049 313.249 275.049Z" fill="#3CC4F2"/>
<g opacity="0.7">
<path d="M280.43 285.439H282.26V286.129H280.43V285.439Z" fill="white"/>
<path d="M286.871 287.69V288.44H286.321V287.7C285.736 287.679 285.169 287.488 284.691 287.15L284.991 286.47C285.378 286.761 285.839 286.937 286.321 286.98V285.65C285.591 285.47 284.791 285.23 284.791 284.3C284.791 283.63 285.291 283.03 286.321 282.93V282.18H286.871V282.92C287.349 282.94 287.813 283.081 288.221 283.33L288.001 284C287.67 283.806 287.303 283.683 286.921 283.64V285C287.661 285.18 288.461 285.42 288.461 286.34C288.411 287 287.911 287.58 286.871 287.69ZM286.321 284.84V283.66C285.851 283.73 285.651 283.97 285.651 284.26C285.651 284.55 285.941 284.73 286.321 284.84ZM287.561 286.38C287.561 286.05 287.271 285.9 286.871 285.79V287C287.351 286.89 287.561 286.67 287.561 286.38Z" fill="white"/>
<path d="M294.159 286.21C294.159 287.02 293.569 287.7 292.309 287.7C291.683 287.711 291.07 287.522 290.559 287.16L290.929 286.49C291.321 286.793 291.803 286.955 292.299 286.95C292.919 286.95 293.299 286.68 293.299 286.24C293.299 285.8 293.009 285.52 292.049 285.52H290.919L291.159 282.98H293.889V283.71H291.889L291.789 284.78H292.239C293.609 284.78 294.159 285.38 294.159 286.21Z" fill="white"/>
<path d="M297.998 286.21C297.998 287.02 297.398 287.7 296.148 287.7C295.522 287.711 294.909 287.522 294.398 287.16L294.768 286.49C295.161 286.793 295.643 286.955 296.138 286.95C296.758 286.95 297.138 286.68 297.138 286.24C297.138 285.8 296.848 285.52 295.878 285.52H294.758L294.998 283H297.728V283.73H295.728L295.628 284.8H296.078C297.458 284.78 297.998 285.38 297.998 286.21Z" fill="white"/>
<path d="M299.569 287.13C299.559 287.328 299.508 287.523 299.419 287.7L299.079 288.64H298.539L298.799 287.64C298.705 287.598 298.625 287.53 298.57 287.442C298.514 287.355 298.486 287.253 298.489 287.15C298.485 287.078 298.496 287.005 298.521 286.937C298.547 286.869 298.586 286.807 298.637 286.755C298.688 286.703 298.749 286.663 298.817 286.636C298.884 286.609 298.957 286.597 299.029 286.6C299.1 286.599 299.17 286.611 299.235 286.637C299.301 286.664 299.36 286.702 299.41 286.752C299.461 286.801 299.501 286.86 299.528 286.925C299.555 286.99 299.569 287.06 299.569 287.13Z" fill="white"/>
<path d="M304.25 286.58H303.42V287.64H302.58V286.58H300V286L302.29 283H303.22L301.06 285.87H302.58V284.93H303.39V285.87H304.22L304.25 286.58Z" fill="white"/>
<path d="M308.449 286.301C308.449 287.161 307.699 287.701 306.539 287.701C305.379 287.701 304.649 287.161 304.649 286.301C304.643 286.062 304.711 285.827 304.843 285.629C304.976 285.43 305.166 285.277 305.389 285.191C305.207 285.097 305.055 284.953 304.952 284.776C304.849 284.598 304.8 284.395 304.809 284.191C304.809 283.391 305.509 282.891 306.539 282.891C307.569 282.891 308.289 283.391 308.289 284.191C308.296 284.397 308.244 284.602 308.137 284.78C308.031 284.957 307.875 285.1 307.689 285.191C307.914 285.275 308.108 285.427 308.244 285.625C308.38 285.824 308.452 286.06 308.449 286.301ZM307.579 286.301C307.579 285.841 307.179 285.561 306.579 285.561C305.979 285.561 305.579 285.841 305.579 286.301C305.579 286.761 305.969 287.051 306.579 287.051C307.189 287.051 307.579 286.751 307.579 286.271V286.301ZM305.669 284.301C305.669 284.701 305.999 284.951 306.539 284.951C307.079 284.951 307.439 284.701 307.439 284.301C307.439 283.901 307.079 283.641 306.539 283.641C305.999 283.641 305.669 283.831 305.669 284.251V284.301Z" fill="white"/>
</g>
<path opacity="0.7" d="M222.76 284.069H191.44C191.124 284.069 190.822 283.944 190.599 283.721C190.375 283.498 190.25 283.195 190.25 282.879C190.25 282.564 190.375 282.261 190.599 282.038C190.822 281.815 191.124 281.689 191.44 281.689H222.76C223.076 281.689 223.378 281.815 223.601 282.038C223.825 282.261 223.95 282.564 223.95 282.879C223.95 283.195 223.825 283.498 223.601 283.721C223.378 283.944 223.076 284.069 222.76 284.069Z" fill="white"/>
<path opacity="0.7" d="M208.76 289.69H191.44C191.124 289.69 190.822 289.564 190.599 289.341C190.375 289.118 190.25 288.815 190.25 288.5C190.25 288.184 190.375 287.881 190.599 287.658C190.822 287.435 191.124 287.31 191.44 287.31H208.76C208.92 287.303 209.081 287.329 209.231 287.385C209.381 287.442 209.518 287.529 209.634 287.64C209.75 287.751 209.842 287.885 209.905 288.032C209.968 288.18 210 288.339 210 288.5C210 288.66 209.968 288.819 209.905 288.967C209.842 289.115 209.75 289.248 209.634 289.359C209.518 289.47 209.381 289.557 209.231 289.614C209.081 289.671 208.92 289.696 208.76 289.69Z" fill="white"/>
<path d="M313.249 304.049H184.699C183.053 304.049 181.719 305.383 181.719 307.029V322.359C181.719 324.005 183.053 325.339 184.699 325.339H313.249C314.895 325.339 316.229 324.005 316.229 322.359V307.029C316.229 305.383 314.895 304.049 313.249 304.049Z" fill="#3CC4F2"/>
<g opacity="0.7">
<path d="M283.49 314.64H282.31V315.81H281.6V314.64H280.43V314H281.6V312.83H282.31V314H283.49V314.64Z" fill="white"/>
<path d="M288.16 316.69V317.44H287.61V316.7C287.025 316.679 286.458 316.488 285.98 316.15L286.28 315.47C286.667 315.761 287.128 315.937 287.61 315.98V314.65C286.88 314.47 286.08 314.23 286.08 313.3C286.08 312.63 286.58 312.03 287.61 311.93V311.18H288.16V311.92C288.638 311.94 289.102 312.081 289.51 312.33L289.24 313C288.909 312.806 288.542 312.683 288.16 312.64V314C288.9 314.18 289.7 314.42 289.7 315.34C289.7 316 289.2 316.58 288.16 316.69ZM287.61 313.84V312.66C287.14 312.73 286.94 312.97 286.94 313.26C286.94 313.55 287.23 313.73 287.61 313.84ZM288.85 315.38C288.85 315.05 288.56 314.9 288.16 314.79V316C288.65 315.89 288.85 315.67 288.85 315.38Z" fill="white"/>
<path d="M293.669 312V316.66H292.809V312.73H291.809V312H293.669Z" fill="white"/>
<path d="M298.371 315.301C298.371 316.161 297.621 316.701 296.461 316.701C295.301 316.701 294.571 316.161 294.571 315.301C294.565 315.062 294.633 314.827 294.765 314.629C294.898 314.43 295.088 314.277 295.311 314.191C295.128 314.097 294.977 313.953 294.874 313.776C294.771 313.598 294.721 313.395 294.731 313.191C294.731 312.391 295.431 311.891 296.461 311.891C297.491 311.891 298.211 312.391 298.211 313.191C298.218 313.396 298.166 313.599 298.061 313.777C297.957 313.954 297.804 314.097 297.621 314.191C297.844 314.277 298.036 314.429 298.17 314.628C298.304 314.826 298.374 315.061 298.371 315.301ZM297.501 315.301C297.501 314.841 297.101 314.561 296.501 314.561C295.901 314.561 295.501 314.841 295.501 315.301C295.501 315.761 295.891 316.051 296.501 316.051C297.111 316.051 297.501 315.751 297.501 315.271V315.301ZM295.591 313.301C295.591 313.701 295.921 313.951 296.461 313.951C297.001 313.951 297.361 313.701 297.361 313.301C297.361 312.901 297.001 312.641 296.461 312.641C295.921 312.641 295.591 312.831 295.591 313.251V313.301Z" fill="white"/>
<path d="M300.059 316.129C300.05 316.328 299.999 316.522 299.909 316.699L299.569 317.639H298.999L299.269 316.639C299.172 316.6 299.089 316.533 299.032 316.445C298.975 316.357 298.946 316.254 298.949 316.149C298.949 316.006 299.006 315.869 299.108 315.768C299.209 315.666 299.346 315.609 299.489 315.609C299.633 315.609 299.77 315.666 299.871 315.768C299.973 315.869 300.029 316.006 300.029 316.149L300.059 316.129Z" fill="white"/>
<path d="M304.059 315.9V316.64H300.629V316.06L302.479 314.3C302.929 313.87 303.009 313.6 303.009 313.3C303.009 312.87 302.709 312.63 302.139 312.63C301.933 312.619 301.726 312.657 301.537 312.74C301.348 312.824 301.181 312.95 301.049 313.11L300.449 312.65C300.662 312.39 300.934 312.184 301.241 312.049C301.549 311.913 301.884 311.852 302.219 311.87C303.219 311.87 303.879 312.39 303.879 313.21C303.872 313.498 303.799 313.78 303.665 314.035C303.532 314.29 303.341 314.511 303.109 314.68L301.859 315.86L304.059 315.9Z" fill="white"/>
<path d="M304.539 314.31C304.539 312.78 305.369 311.91 306.479 311.91C307.589 311.91 308.429 312.78 308.429 314.31C308.429 315.84 307.589 316.7 306.479 316.7C305.369 316.7 304.539 315.84 304.539 314.31ZM307.539 314.31C307.539 313.18 307.099 312.67 306.459 312.67C305.819 312.67 305.389 313.18 305.389 314.31C305.389 315.44 305.829 315.95 306.459 315.95C307.089 315.95 307.559 315.43 307.559 314.31H307.539Z" fill="white"/>
</g>
<path opacity="0.7" d="M222.76 313.069H191.44C191.124 313.069 190.822 312.944 190.599 312.721C190.375 312.498 190.25 312.195 190.25 311.879C190.25 311.564 190.375 311.261 190.599 311.038C190.822 310.815 191.124 310.689 191.44 310.689H222.76C223.076 310.689 223.378 310.815 223.601 311.038C223.825 311.261 223.95 311.564 223.95 311.879C223.95 312.195 223.825 312.498 223.601 312.721C223.378 312.944 223.076 313.069 222.76 313.069Z" fill="white"/>
<path opacity="0.7" d="M208.76 318.69H191.44C191.124 318.69 190.822 318.564 190.599 318.341C190.375 318.118 190.25 317.815 190.25 317.5C190.25 317.184 190.375 316.881 190.599 316.658C190.822 316.435 191.124 316.31 191.44 316.31H208.76C208.92 316.303 209.081 316.329 209.231 316.385C209.381 316.442 209.518 316.529 209.634 316.64C209.75 316.751 209.842 316.885 209.905 317.032C209.968 317.18 210 317.339 210 317.5C210 317.66 209.968 317.819 209.905 317.967C209.842 318.115 209.75 318.248 209.634 318.359C209.518 318.47 209.381 318.557 209.231 318.614C209.081 318.671 208.92 318.696 208.76 318.69Z" fill="white"/>
<path d="M109.266 100.814L122.986 100.824C125.024 100.825 126.677 99.1741 126.678 97.1362L126.688 83.4162C126.689 81.3782 125.038 79.725 123.001 79.7236L109.281 79.714C107.243 79.7126 105.589 81.3635 105.588 83.4014L105.578 97.1214C105.577 99.1594 107.228 100.813 109.266 100.814Z" fill="#3CC4F2"/>
<path opacity="0.6" d="M110.33 86.1088C111.83 83.6888 114.67 84.6188 116.14 86.4988C117.61 84.6188 120.46 83.6888 121.95 86.1088C124.46 90.1988 119.28 93.9688 116.83 95.4488L116.14 95.8688C115.94 95.7588 115.72 95.6188 115.44 95.4488C113 93.9988 107.82 90.1888 110.33 86.1088Z" fill="white"/>
<path d="M113.867 99.1799C113.867 99.1799 116.627 105.51 122.867 107.49C122.867 107.49 119.437 105.49 119.707 98.9199L113.867 99.1799Z" fill="#3CC4F2"/>
<path d="M108.001 140.9C108.015 141.016 108.002 141.135 107.965 141.246C107.928 141.357 107.866 141.459 107.785 141.544C107.704 141.629 107.605 141.695 107.495 141.738C107.386 141.78 107.268 141.798 107.151 141.79L98.0011 141.54C97.746 141.54 97.5003 141.443 97.3144 141.268C97.1285 141.094 97.0164 140.854 97.0011 140.6L95.4411 122.51C95.4302 122.387 95.4439 122.264 95.4815 122.147C95.5191 122.03 95.5798 121.921 95.66 121.828C95.7401 121.735 95.8382 121.659 95.9483 121.604C96.0584 121.549 96.1784 121.517 96.3011 121.51L105.431 121.76C105.695 121.798 105.937 121.924 106.119 122.119C106.301 122.313 106.411 122.564 106.431 122.83L108.001 140.9Z" fill="#2E373C"/>
<path opacity="0.5" d="M105.44 122.66L107 140.93C107.024 141.037 107.023 141.148 106.996 141.254C106.969 141.36 106.917 141.458 106.845 141.54C106.772 141.622 106.682 141.685 106.58 141.725C106.478 141.765 106.368 141.781 106.26 141.77L98.5197 141.56C97.9997 141.56 97.0497 141.23 97.0097 140.72L95.4297 122.39C95.4297 121.88 96.2897 121.49 96.8097 121.5L104.55 121.71C104.787 121.736 105.007 121.846 105.17 122.021C105.334 122.195 105.429 122.422 105.44 122.66Z" fill="white"/>
<path d="M102.301 145.87L101.231 142.34C101.698 141.073 102.056 139.768 102.301 138.44C102.391 137.26 99.2313 127.99 99.2313 127.99C99.2313 127.99 95.7713 130.74 93.6913 132.12C91.6113 133.5 94.9213 142.44 95.4413 142.67C95.9651 142.917 96.4758 143.191 96.9713 143.49L97.6613 146.36L102.301 145.87Z" fill="#E4897B"/>
<path d="M96.5918 149.141C97.6618 153.281 102.292 170.021 107.832 172.271C109.282 172.861 110.992 172.491 112.832 171.561C118.832 168.451 125.632 159.071 125.632 159.071L124.262 152.231L122.992 145.871C117.992 148.341 112.242 160.381 110.652 160.291C109.312 160.221 105.982 149.911 105.002 146.771C104.919 146.533 104.75 146.334 104.527 146.216C104.305 146.097 104.046 146.067 103.802 146.131L97.2718 148.001C97.0387 148.075 96.8407 148.232 96.7154 148.442C96.5901 148.652 96.5461 148.901 96.5918 149.141Z" fill="#FF9B26"/>
<path d="M102.693 143.98L103.233 146.27L97.2725 147.96L96.5625 145.47L102.693 143.98Z" fill="#FF9B26"/>
<path opacity="0.2" d="M102.693 143.98L103.233 146.27L97.2725 147.96L96.5625 145.47L102.693 143.98Z" fill="black"/>
<path opacity="0.2" d="M112.781 171.56C118.781 168.45 125.581 159.07 125.581 159.07L124.211 152.23C121.121 155.1 113.761 162.78 112.781 171.56Z" fill="black"/>
<path d="M158.21 273.91L158.16 265.18C158.161 265.036 158.209 264.897 158.298 264.785C158.387 264.673 158.511 264.593 158.65 264.56L165.05 263.12C165.325 263.06 165.611 263.112 165.848 263.264C166.084 263.416 166.25 263.655 166.31 263.93C166.32 264.006 166.32 264.083 166.31 264.16C166.31 266.99 166.12 269.04 166.13 272.59C166.13 274.78 166.41 281.37 166.42 284.39C166.43 287.41 163.42 287.81 163.18 286.58C161.94 281.04 160.25 276.88 158.65 275.12C158.354 274.787 158.197 274.354 158.21 273.91Z" fill="#2E373C"/>
<path d="M119.221 193.51L116.401 208.3C116.401 208.3 94.1111 244.38 94.1211 265.21C94.1211 290.09 159.051 275.74 159.051 275.74V264.28C159.051 264.28 120.251 267.61 116.751 263.72C112.511 259 138.671 222.44 138.671 222.44L119.221 193.51Z" fill="#2E373C"/>
<path opacity="0.2" d="M94.1211 265.21C94.1211 278.93 113.861 280.72 131.571 279.56C140.391 278.935 149.163 277.746 157.831 276L159.041 275.75V264.28L157.621 264.39C153.211 264.74 139.471 265.74 129.081 265.59C122.901 265.5 117.901 265 116.751 263.72C114.661 261.4 119.921 251.39 125.811 241.81C131.901 231.9 138.671 222.45 138.671 222.45L130.151 209.76L119.231 193.5L116.401 208.3C116.401 208.3 94.1111 244.38 94.1211 265.21Z" fill="white"/>
<path opacity="0.2" d="M129.082 265.59L131.572 279.59C140.393 278.955 149.164 277.756 157.832 276L157.622 264.4C153.212 264.74 139.472 265.74 129.082 265.59Z" fill="black"/>
<path opacity="0.2" d="M130.112 225.581C130.112 225.581 126.492 234.111 125.812 241.801C131.902 231.891 138.672 222.441 138.672 222.441L130.152 209.751L125.662 208.301C125.662 208.301 124.662 214.121 130.112 225.581Z" fill="black"/>
<path d="M135.913 350.821H144.643C144.785 350.82 144.924 350.868 145.035 350.958C145.146 351.047 145.223 351.172 145.253 351.311L146.673 357.711C146.702 357.848 146.704 357.989 146.679 358.126C146.653 358.264 146.601 358.395 146.525 358.512C146.449 358.629 146.35 358.73 146.235 358.808C146.119 358.887 145.99 358.943 145.853 358.971C145.777 358.986 145.699 358.986 145.623 358.971C142.803 358.971 140.743 358.761 137.193 358.761C135.003 358.761 128.413 358.981 125.393 358.981C122.373 358.981 121.983 355.981 123.223 355.731C128.763 354.521 132.933 352.851 134.703 351.261C135.035 350.965 135.468 350.808 135.913 350.821Z" fill="#2E373C"/>
<path d="M158.122 194.001C158.122 194.001 160.052 201.241 158.122 234.451C155.122 285.451 145.692 353.291 145.692 353.291L134.692 351.291C134.692 351.291 136.102 249.771 134.622 221.751C134.622 221.751 119.102 207.831 119.212 193.521C119.322 179.211 158.122 194.001 158.122 194.001Z" fill="#2E373C"/>
<path opacity="0.2" d="M158.122 194.001C158.122 194.001 160.052 201.241 158.122 234.451C155.122 285.451 145.692 353.291 145.692 353.291L134.692 351.291C134.692 351.291 136.102 249.771 134.622 221.751C134.622 221.751 119.102 207.831 119.212 193.521C119.322 179.211 158.122 194.001 158.122 194.001Z" fill="white"/>
<path d="M118.41 192.561C118.408 192.73 118.438 192.897 118.501 193.054C118.564 193.211 118.656 193.354 118.775 193.475C118.893 193.596 119.033 193.692 119.189 193.759C119.344 193.825 119.511 193.859 119.68 193.861L155.88 194.671L158.45 194.731C158.786 194.742 159.113 194.622 159.361 194.396C159.609 194.17 159.76 193.856 159.78 193.521L160.51 183.991L160.9 178.861L162.76 154.421L163.15 149.261C145.42 136.021 122.94 145.871 122.94 145.871C118.9 158.581 118.46 185.631 118.41 192.561Z" fill="#FF9B26"/>
<path d="M159.131 194.56L118.661 193.32L118.191 195.73L159.131 197.06V194.56Z" fill="#FF9B26"/>
<path opacity="0.2" d="M159.131 194.56L118.661 193.32L118.191 195.73L159.131 197.06V194.56Z" fill="black"/>
<path opacity="0.2" d="M160.901 178.86L162.761 154.42C161.659 154.77 160.639 155.338 159.761 156.09C159.761 156.09 153.441 165.93 160.901 178.86Z" fill="black"/>
<path opacity="0.2" d="M155.883 194.67L158.453 194.73C158.788 194.741 159.115 194.621 159.363 194.395C159.612 194.169 159.762 193.855 159.783 193.52L160.513 183.99C158.739 187.446 157.192 191.013 155.883 194.67Z" fill="black"/>
<g opacity="0.7">
<path d="M122.562 165.541L123.003 164.381C123.596 164.768 124.295 164.96 125.003 164.931C125.823 164.931 126.152 164.611 126.132 164.171C126.072 162.951 122.712 164.251 122.592 161.701C122.592 160.491 123.443 159.701 124.933 159.591C125.662 159.54 126.391 159.7 127.033 160.051L126.583 161.211C126.107 160.906 125.546 160.762 124.983 160.801C124.193 160.801 123.833 161.151 123.853 161.571C123.913 162.861 127.273 161.571 127.393 164.061C127.443 165.261 126.533 166.061 124.973 166.151C124.124 166.219 123.277 166.004 122.562 165.541Z" fill="white"/>
</g>
<path d="M150.693 145.54C147.213 148.7 138.693 147.54 138.693 147.54C138.693 147.54 133.363 146.08 134.483 144.42C137.623 143.9 139.143 142.42 139.773 140.56C140.111 139.399 140.216 138.182 140.083 136.98C140.036 136.309 139.949 135.641 139.823 134.98L150.383 127.16C149.003 132.31 147.283 141.8 150.693 145.54Z" fill="#E4897B"/>
<path opacity="0.2" d="M147.92 132.121C147.5 138.451 142.29 140.201 139.75 140.551C140.088 139.39 140.194 138.173 140.06 136.971L147.92 132.121Z" fill="black"/>
<path d="M153.871 110.74C153.871 110.74 156.821 120.26 152.211 124.79C147.601 129.32 144.871 111.17 144.871 111.17L153.871 110.74Z" fill="#2E373C"/>
<path d="M138.353 134.791C139.678 136.232 141.439 137.199 143.367 137.542C145.295 137.885 147.281 137.586 149.023 136.691C150.306 136.054 151.44 135.151 152.348 134.042C153.257 132.934 153.92 131.645 154.293 130.261C155.943 123.931 155.193 113.381 148.293 110.421C145.937 109.395 143.271 109.344 140.879 110.282C138.486 111.219 136.564 113.068 135.533 115.421C134.914 116.815 134.639 118.338 134.733 119.861C135.003 126.931 134.833 131.101 138.353 134.791Z" fill="#E4897B"/>
<path d="M145.453 122.051C145.453 122.621 145.733 123.051 146.113 123.051C146.493 123.051 146.803 122.591 146.823 122.051C146.843 121.511 146.533 121.051 146.153 120.991C145.773 120.931 145.463 121.461 145.453 122.051Z" fill="#2E373C"/>
<path d="M152.001 122.18C151.951 122.75 152.291 123.18 152.661 123.18C153.031 123.18 153.351 122.72 153.371 122.18C153.391 121.64 153.081 121.18 152.701 121.12C152.321 121.06 152.001 121.63 152.001 122.18Z" fill="#2E373C"/>
<path d="M149.892 122.42C150.538 124.204 151.434 125.887 152.552 127.42C152.149 127.697 151.69 127.881 151.208 127.961C150.726 128.04 150.232 128.013 149.762 127.88L149.892 122.42Z" fill="#DE5753"/>
<path d="M143.47 119.891C143.531 119.902 143.593 119.897 143.651 119.875C143.709 119.854 143.761 119.818 143.8 119.771C144.056 119.432 144.387 119.157 144.767 118.968C145.147 118.779 145.566 118.681 145.99 118.681C146.079 118.687 146.166 118.657 146.233 118.599C146.301 118.541 146.343 118.46 146.35 118.371C146.356 118.327 146.352 118.283 146.34 118.241C146.328 118.199 146.307 118.16 146.279 118.126C146.25 118.092 146.216 118.064 146.176 118.045C146.137 118.025 146.094 118.013 146.05 118.011C145.513 117.996 144.981 118.11 144.497 118.343C144.014 118.576 143.593 118.922 143.27 119.351C143.239 119.382 143.214 119.418 143.197 119.459C143.181 119.499 143.172 119.542 143.172 119.586C143.172 119.63 143.181 119.673 143.197 119.713C143.214 119.754 143.239 119.79 143.27 119.821C143.328 119.865 143.398 119.89 143.47 119.891Z" fill="#2E373C"/>
<path d="M154.813 120C154.878 120.019 154.948 120.019 155.013 120C155.094 119.964 155.159 119.899 155.193 119.816C155.226 119.734 155.226 119.642 155.193 119.56C154.985 119.056 154.659 118.611 154.24 118.263C153.822 117.914 153.325 117.673 152.793 117.56C152.706 117.548 152.617 117.571 152.546 117.623C152.476 117.675 152.428 117.753 152.413 117.84C152.402 117.928 152.426 118.018 152.48 118.089C152.534 118.16 152.614 118.207 152.703 118.22C153.115 118.318 153.499 118.511 153.823 118.784C154.148 119.056 154.404 119.401 154.573 119.79C154.592 119.842 154.624 119.889 154.666 119.926C154.708 119.962 154.758 119.988 154.813 120Z" fill="#2E373C"/>
<path d="M140.112 111.121L140.582 114.231C140.051 114.497 139.642 114.956 139.439 115.514C139.237 116.072 139.256 116.687 139.492 117.231C140.572 119.831 139.192 123.941 137.222 125.621C137.222 125.621 137.132 124.491 136.222 124.781C135.312 125.071 135.692 130.991 137.642 133.781C135.16 131.207 133.385 128.034 132.492 124.571C130.852 118.861 131.022 114.631 132.142 112.371L140.112 111.121Z" fill="#2E373C"/>
<path d="M131.523 125.59C132.278 127.211 133.644 128.466 135.323 129.08C137.543 129.88 138.833 127.92 138.323 125.73C137.893 123.79 136.213 120.97 133.913 121.14C133.412 121.179 132.928 121.343 132.507 121.618C132.085 121.892 131.74 122.269 131.502 122.712C131.264 123.155 131.141 123.651 131.145 124.154C131.148 124.657 131.279 125.151 131.523 125.59Z" fill="#E4897B"/>
<path d="M149.003 129.94C148.246 130.707 147.544 131.525 146.903 132.39L146.403 132.13C144.123 130.93 143.473 129.62 143.403 128.53C143.395 128.001 143.511 127.477 143.743 127C143.869 126.725 144.034 126.469 144.233 126.24C145.313 127.61 146.678 128.729 148.233 129.52C148.663 129.8 149.003 129.94 149.003 129.94Z" fill="#2E373C"/>
<path d="M148.19 129.52L147.56 130.23C145.42 129.09 144.06 128 143.73 127C143.857 126.725 144.022 126.469 144.22 126.24C145.292 127.606 146.647 128.725 148.19 129.52Z" fill="white"/>
<path d="M146.359 132.131C144.079 130.931 143.429 129.621 143.359 128.531C144.216 129.005 144.982 129.628 145.619 130.371C146.044 130.866 146.303 131.482 146.359 132.131Z" fill="#DE5753"/>
<path d="M131.24 117.07C130.974 115.429 131.156 113.746 131.769 112.2C132.382 110.655 133.402 109.303 134.72 108.29C139.37 104.41 152.43 102.59 154.41 108.29C156.39 113.99 146.75 119.29 139.75 114.2L131.24 117.07Z" fill="#2E373C"/>
<path d="M149.503 140.76L139.363 145.33L138.773 141.67L135.003 143C134.358 143.233 133.81 143.677 133.447 144.259C133.085 144.841 132.928 145.528 133.003 146.21L133.423 150.21L138.563 147.39L141.123 151.02L153.303 145.15L149.503 140.76Z" fill="#FF9B26"/>
<path opacity="0.7" d="M149.503 140.76L139.363 145.33L138.773 141.67L135.003 143C134.358 143.233 133.81 143.677 133.447 144.259C133.085 144.841 132.928 145.528 133.003 146.21L133.423 150.21L138.563 147.39L141.123 151.02L153.303 145.15L149.503 140.76Z" fill="white"/>
<path opacity="0.2" d="M151.121 197.06C151.121 197.06 151.351 202.47 158.341 204.77C158.572 202.17 158.383 199.55 157.781 197.01L151.121 197.06Z" fill="black"/>
<path d="M163.152 149.26C169.352 155.26 178.582 174.44 175.842 182.75C173.522 189.81 162.712 200.43 159.502 203.47C159.386 203.581 159.249 203.668 159.099 203.725C158.949 203.783 158.789 203.809 158.629 203.804C158.469 203.798 158.311 203.76 158.165 203.693C158.02 203.625 157.889 203.529 157.782 203.41L153.942 199.18C153.75 198.975 153.637 198.71 153.623 198.43C153.608 198.15 153.693 197.874 153.862 197.65C156.362 194.35 165.802 181.76 166.442 179.19C167.182 176.19 159.132 164.55 159.132 164.55C158.408 161.183 158.357 157.707 158.982 154.32C160.052 149.12 163.152 149.26 163.152 149.26Z" fill="#FF9B26"/>
<path d="M153.67 198.701L152.27 200.161C152.27 200.161 154.45 203.451 157.09 204.161L157.78 203.461L153.67 198.701Z" fill="#FF9B26"/>
<path opacity="0.2" d="M153.67 198.701L152.27 200.161C152.27 200.161 154.45 203.451 157.09 204.161L157.78 203.461L153.67 198.701Z" fill="black"/>
</g>
<defs>
<clipPath id="clip0_195_1189">
<rect width="500" height="372.61" fill="white"/>
</clipPath>
</defs>
</svg>
